<svg width="45" height="12" viewBox="0 0 45 12" fill="none" xmlns="http://www.w3.org/2000/svg">
<path d="M0.585938 3.91992C0.585938 3.00977 0.90625 2.23438 1.54688 1.59375C2.19141 0.953125 2.9668 0.632812 3.87305 0.632812C4.7793 0.632812 5.55469 0.953125 6.19922 1.59375C6.83984 2.23438 7.16016 3.00977 7.16016 3.91992C7.16016 4.82617 6.83984 5.59961 6.19922 6.24023C5.55469 6.88086 4.7793 7.20117 3.87305 7.20117H1.70508V8.44336C1.70508 8.5957 1.65039 8.72656 1.54102 8.83594C1.43164 8.94531 1.29883 9 1.14258 9C0.990234 9 0.859375 8.94531 0.75 8.83594C0.640625 8.72656 0.585938 8.5957 0.585938 8.44336V3.91992ZM1.70508 6.08789H3.87305C4.4707 6.08789 4.98242 5.875 5.4082 5.44922C5.83008 5.02734 6.04102 4.51758 6.04102 3.91992C6.04102 3.31836 5.83008 2.80664 5.4082 2.38477C4.98242 1.95898 4.4707 1.74609 3.87305 1.74609C3.27539 1.74609 2.76367 1.95898 2.33789 2.38477C1.91602 2.80664 1.70508 3.31836 1.70508 3.91992V6.08789ZM11.0566 2.30859C11.9824 2.30859 12.7715 2.63477 13.4238 3.28711C14.0762 3.93945 14.4023 4.72852 14.4023 5.6543V8.4375C14.4023 8.59375 14.3477 8.72656 14.2383 8.83594C14.1289 8.94531 13.998 9 13.8457 9C13.6895 9 13.5586 8.94531 13.4531 8.83594C13.3438 8.72656 13.2891 8.59375 13.2891 8.4375V8.14453C12.6523 8.71484 11.9082 9 11.0566 9C10.1348 9 9.3457 8.67188 8.68945 8.01562C8.03711 7.36328 7.71094 6.57617 7.71094 5.6543C7.71094 4.72852 8.03711 3.93945 8.68945 3.28711C9.3457 2.63477 10.1348 2.30859 11.0566 2.30859ZM12.6328 4.07227C12.1992 3.63867 11.6738 3.42188 11.0566 3.42188C10.4395 3.42188 9.91406 3.63867 9.48047 4.07227C9.04297 4.50977 8.82422 5.03711 8.82422 5.6543C8.82422 6.26758 9.04297 6.79297 9.48047 7.23047C9.91406 7.66406 10.4395 7.88086 11.0566 7.88086C11.6738 7.88086 12.1992 7.66406 12.6328 7.23047C13.0703 6.79297 13.2891 6.26758 13.2891 5.6543C13.2891 5.03711 13.0703 4.50977 12.6328 4.07227ZM22.2656 8.49609C22.2656 9.41797 21.9395 10.207 21.2871 10.8633C20.6348 11.5156 19.8457 11.8418 18.9199 11.8418C18.2598 11.8418 17.6543 11.6621 17.1035 11.3027C16.5488 10.9434 16.1367 10.4609 15.8672 9.85547C15.8047 9.71875 15.8008 9.57812 15.8555 9.43359C15.9102 9.28906 16.0078 9.18555 16.1484 9.12305C16.2891 9.06055 16.4297 9.05664 16.5703 9.11133C16.7148 9.16602 16.8184 9.26367 16.8809 9.4043C17.0605 9.80664 17.3359 10.1289 17.707 10.3711C18.0742 10.6094 18.4785 10.7285 18.9199 10.7285C19.5371 10.7285 20.0625 10.5098 20.4961 10.0723C20.9336 9.63867 21.1523 9.11328 21.1523 8.49609V8.14453C20.5156 8.71484 19.7715 9 18.9199 9C17.998 9 17.209 8.67188 16.5527 8.01562C15.9004 7.36328 15.5742 6.57617 15.5742 5.6543V2.86523C15.5742 2.70898 15.6289 2.57617 15.7383 2.4668C15.8477 2.36133 15.9785 2.30859 16.1309 2.30859C16.2871 2.30859 16.418 2.36133 16.5234 2.4668C16.6328 2.57617 16.6875 2.70898 16.6875 2.86523V5.6543C16.6875 6.26758 16.9062 6.79297 17.3438 7.23047C17.7773 7.66406 18.3027 7.88086 18.9199 7.88086C19.5371 7.88086 20.0625 7.66406 20.4961 7.23047C20.9336 6.79297 21.1523 6.26758 21.1523 5.6543V2.86523C21.1523 2.70898 21.207 2.57617 21.3164 2.4668C21.4219 2.36133 21.5527 2.30859 21.709 2.30859C21.8613 2.30859 21.9922 2.36133 22.1016 2.4668C22.2109 2.57617 22.2656 2.70898 22.2656 2.86523V8.49609Z" fill="white"/>
<path d="M26.7832 9C25.8613 9 25.0723 8.67188 24.416 8.01562C23.7637 7.36328 23.4375 6.57617 23.4375 5.6543V1.18945C23.4375 1.03711 23.4922 0.90625 23.6016 0.796875C23.7109 0.6875 23.8418 0.632812 23.9941 0.632812C24.1504 0.632812 24.2812 0.6875 24.3867 0.796875C24.4961 0.90625 24.5508 1.03711 24.5508 1.18945V3.1582C25.1875 2.5918 25.9316 2.30859 26.7832 2.30859C27.709 2.30859 28.498 2.63477 29.1504 3.28711C29.8027 3.93945 30.1289 4.72852 30.1289 5.6543C30.1289 6.57617 29.8027 7.36328 29.1504 8.01562C28.498 8.67188 27.709 9 26.7832 9ZM25.207 7.23047C25.6406 7.66406 26.166 7.88086 26.7832 7.88086C27.4004 7.88086 27.9258 7.66406 28.3594 7.23047C28.7969 6.79297 29.0156 6.26758 29.0156 5.6543C29.0156 5.03711 28.7969 4.50977 28.3594 4.07227C27.9258 3.63867 27.4004 3.42188 26.7832 3.42188C26.166 3.42188 25.6406 3.63867 25.207 4.07227C24.7695 4.50977 24.5508 5.03711 24.5508 5.6543C24.5508 6.26758 24.7695 6.79297 25.207 7.23047ZM34.0605 3.42188C33.4434 3.42188 32.918 3.63867 32.4844 4.07227C32.0469 4.50977 31.8281 5.03711 31.8281 5.6543C31.8281 6.26758 32.0469 6.79297 32.4844 7.23047C32.918 7.66406 33.4434 7.88086 34.0605 7.88086C34.6777 7.88086 35.2031 7.66406 35.6367 7.23047C36.0742 6.79297 36.293 6.26758 36.293 5.6543C36.293 5.03711 36.0742 4.50977 35.6367 4.07227C35.2031 3.63867 34.6777 3.42188 34.0605 3.42188ZM31.6934 3.28711C32.3496 2.63477 33.1387 2.30859 34.0605 2.30859C34.9863 2.30859 35.7754 2.63477 36.4277 3.28711C37.0801 3.93945 37.4062 4.72852 37.4062 5.6543C37.4062 6.57617 37.0801 7.36328 36.4277 8.01562C35.7754 8.67188 34.9863 9 34.0605 9C33.1387 9 32.3496 8.67188 31.6934 8.01562C31.041 7.36328 30.7148 6.57617 30.7148 5.6543C30.7148 4.72852 31.041 3.93945 31.6934 3.28711ZM38.2852 2.86523C38.2852 2.70898 38.3398 2.57617 38.4492 2.4668C38.5586 2.36133 38.6895 2.30859 38.8418 2.30859C38.998 2.30859 39.1289 2.36133 39.2344 2.4668C39.3438 2.57617 39.3984 2.70898 39.3984 2.86523V2.88281C39.3984 3.5 39.6172 4.02539 40.0547 4.45898C40.4883 4.89258 41.0117 5.11133 41.625 5.11523H41.6367C42.25 5.11133 42.7734 4.89258 43.207 4.45898C43.6445 4.02539 43.8633 3.5 43.8633 2.88281V2.86523C43.8633 2.70898 43.918 2.57617 44.0273 2.4668C44.1328 2.36133 44.2637 2.30859 44.4199 2.30859C44.5723 2.30859 44.7031 2.36133 44.8125 2.4668C44.9219 2.57617 44.9766 2.70898 44.9766 2.86523V2.88281C44.9766 3.80469 44.6504 4.59375 43.998 5.25C43.8496 5.39453 43.6895 5.52539 43.5176 5.64258C44.4902 6.25195 44.9766 7.17773 44.9766 8.41992V8.4375C44.9766 8.59375 44.9219 8.72656 44.8125 8.83594C44.7031 8.94531 44.5723 9 44.4199 9C44.2637 9 44.1328 8.94531 44.0273 8.83594C43.918 8.72656 43.8633 8.59375 43.8633 8.4375V8.41992C43.8633 7.91602 43.7383 7.48438 43.4883 7.125C43.2617 6.79688 42.9531 6.55664 42.5625 6.4043C42.2734 6.28711 41.9648 6.22852 41.6367 6.22852H41.625C41.3047 6.22852 41.0039 6.2832 40.7227 6.39258L40.6992 6.4043C40.3086 6.55664 40 6.79688 39.7734 7.125C39.5234 7.48438 39.3984 7.91602 39.3984 8.41992V8.4375C39.3984 8.59375 39.3438 8.72656 39.2344 8.83594C39.1289 8.94531 38.998 9 38.8418 9C38.6895 9 38.5586 8.94531 38.4492 8.83594C38.3398 8.72656 38.2852 8.59375 38.2852 8.4375V8.41992C38.2852 7.17773 38.7715 6.25195 39.7441 5.64258C39.5723 5.52539 39.4121 5.39453 39.2637 5.25C38.6113 4.59375 38.2852 3.80469 38.2852 2.88281V2.86523Z" fill="#00A3FF"/>
</svg>
